<svg xmlns="http://www.w3.org/2000/svg" viewBox="0 0 800 560" width="800" height="560"><defs><filter id="n"><feTurbulence type="fractalNoise" baseFrequency="0.9" numOctaves="2" stitchTiles="stitch"/><feColorMatrix values="0 0 0 0 0.96 0 0 0 0 0.94 0 0 0 0 0.92 0 0 0 0.05 0"/></filter><radialGradient id="g8" cx="50%" cy="50%" r="60%"><stop offset="0%" stop-color="#FF5C1F" stop-opacity=".18"/><stop offset="55%" stop-color="#C2410C" stop-opacity=".06"/><stop offset="100%" stop-color="#C2410C" stop-opacity="0"/></radialGradient></defs><rect width="800" height="560" fill="#0B0B0C"/><circle cx="400" cy="280" r="340" fill="url(#g8)"/><circle cx="400" cy="265" r="150" fill="none" stroke="#8B8680" stroke-width="1"/><circle cx="400" cy="265" r="118" fill="none" stroke="#F4F1EC" stroke-width="1.4"/><circle cx="400" cy="265" r="86" fill="none" stroke="#FF5C1F" stroke-width="2"/><circle cx="400" cy="265" r="54" fill="none" stroke="#F4F1EC" stroke-width="1"/><circle cx="400" cy="265" r="24" fill="#FF5C1F" stroke="#FF5C1F" stroke-width="0"/><line x1="357" y1="339" x2="325" y2="395" stroke="#8B8680" stroke-width=".8"/><line x1="314" y1="265" x2="250" y2="265" stroke="#8B8680" stroke-width=".8"/><line x1="357" y1="191" x2="325" y2="135" stroke="#8B8680" stroke-width=".8"/><line x1="443" y1="191" x2="475" y2="135" stroke="#8B8680" stroke-width=".8"/><line x1="486" y1="265" x2="550" y2="265" stroke="#8B8680" stroke-width=".8"/><line x1="443" y1="339" x2="475" y2="395" stroke="#8B8680" stroke-width=".8"/><rect x="60" y="60" width="40" height="2" fill="#FF5C1F"/><rect x="60" y="70" width="24" height="2" fill="#8B8680"/><rect width="800" height="560" filter="url(#n)" opacity=".6"/><text x="40" y="524" font-family="Courier New,monospace" font-size="13" letter-spacing="3" fill="#8B8680">LENS / CRAFT</text><text x="760" y="524" text-anchor="end" font-family="Courier New,monospace" font-size="13" letter-spacing="3" fill="#FF5C1F">BW—08</text></svg>