<svg xmlns="http://www.w3.org/2000/svg" viewBox="0 0 800 560" width="800" height="560"><defs><filter id="n"><feTurbulence type="fractalNoise" baseFrequency="0.9" numOctaves="2" stitchTiles="stitch"/><feColorMatrix values="0 0 0 0 0.96 0 0 0 0 0.94 0 0 0 0 0.92 0 0 0 0.05 0"/></filter><radialGradient id="g9" cx="50%" cy="50%" r="60%"><stop offset="0%" stop-color="#FF5C1F" stop-opacity=".18"/><stop offset="55%" stop-color="#C2410C" stop-opacity=".06"/><stop offset="100%" stop-color="#C2410C" stop-opacity="0"/></radialGradient></defs><rect width="800" height="560" fill="#0B0B0C"/><circle cx="285" cy="160" r="320" fill="url(#g9)"/><rect x="80" y="60" width="52" height="400" rx="6" fill="#FF5C1F" stroke="#FF5C1F" stroke-width=".8"/><rect x="152" y="165" width="52" height="295" rx="6" fill="#141416" stroke="#8B8680" stroke-width=".8"/><rect x="224" y="126" width="52" height="334" rx="6" fill="#141416" stroke="#8B8680" stroke-width=".8"/><rect x="296" y="337" width="52" height="123" rx="6" fill="#141416" stroke="#8B8680" stroke-width=".8"/><rect x="368" y="207" width="52" height="253" rx="6" fill="#141416" stroke="#8B8680" stroke-width=".8"/><rect x="440" y="360" width="52" height="100" rx="6" fill="#141416" stroke="#8B8680" stroke-width=".8"/><rect x="512" y="118" width="52" height="342" rx="6" fill="#141416" stroke="#8B8680" stroke-width=".8"/><rect x="584" y="250" width="52" height="210" rx="6" fill="#141416" stroke="#8B8680" stroke-width=".8"/><rect x="656" y="215" width="52" height="245" rx="6" fill="#141416" stroke="#8B8680" stroke-width=".8"/><line x1="60" y1="460" x2="740" y2="460" stroke="#F4F1EC" stroke-width="1"/><line x1="60" y1="140" x2="740" y2="140" stroke="#8B8680" stroke-width=".5" stroke-dasharray="6 8"/><rect width="800" height="560" filter="url(#n)" opacity=".6"/><text x="40" y="524" font-family="Courier New,monospace" font-size="13" letter-spacing="3" fill="#8B8680">SPEND / RETURN</text><text x="760" y="524" text-anchor="end" font-family="Courier New,monospace" font-size="13" letter-spacing="3" fill="#FF5C1F">BW—09</text></svg>