<svg xmlns="http://www.w3.org/2000/svg" viewBox="0 0 800 560" width="800" height="560"><defs><filter id="n"><feTurbulence type="fractalNoise" baseFrequency="0.9" numOctaves="2" stitchTiles="stitch"/><feColorMatrix values="0 0 0 0 0.96 0 0 0 0 0.94 0 0 0 0 0.92 0 0 0 0.05 0"/></filter><radialGradient id="g2" cx="50%" cy="50%" r="60%"><stop offset="0%" stop-color="#FF5C1F" stop-opacity=".18"/><stop offset="55%" stop-color="#C2410C" stop-opacity=".06"/><stop offset="100%" stop-color="#C2410C" stop-opacity="0"/></radialGradient></defs><rect width="800" height="560" fill="#0B0B0C"/><circle cx="608" cy="108" r="300" fill="url(#g2)"/><rect x="90" y="196" width="118" height="167" rx="14" fill="#0B0B0C" stroke="#F4F1EC" stroke-width="1.2" opacity="1"/><circle cx="149" cy="337" r="7" fill="#FF5C1F"/><rect x="108" y="214" width="45" height="6" rx="3" fill="#8B8680"/><rect x="108" y="230" width="36" height="6" rx="3" fill="#141416" stroke="#8B8680" stroke-width=".4"/><rect x="248" y="170" width="118" height="219" rx="14" fill="#0B0B0C" stroke="#F4F1EC" stroke-width="1.2" opacity="1"/><circle cx="307" cy="363" r="7" fill="#FF5C1F"/><rect x="266" y="188" width="72" height="6" rx="3" fill="#8B8680"/><rect x="266" y="204" width="49" height="6" rx="3" fill="#141416" stroke="#8B8680" stroke-width=".4"/><rect x="406" y="197" width="118" height="166" rx="14" fill="#FF5C1F" stroke="#F4F1EC" stroke-width="1.2" opacity="1"/><rect x="564" y="128" width="118" height="303" rx="14" fill="#0B0B0C" stroke="#F4F1EC" stroke-width="1.2" opacity="1"/><circle cx="623" cy="405" r="7" fill="#FF5C1F"/><rect x="582" y="146" width="52" height="6" rx="3" fill="#8B8680"/><rect x="582" y="162" width="52" height="6" rx="3" fill="#141416" stroke="#8B8680" stroke-width=".4"/><rect width="800" height="560" filter="url(#n)" opacity=".6"/><text x="40" y="524" font-family="Courier New,monospace" font-size="13" letter-spacing="3" fill="#8B8680">FEED / SIGNAL</text><text x="760" y="524" text-anchor="end" font-family="Courier New,monospace" font-size="13" letter-spacing="3" fill="#FF5C1F">BW—02</text></svg>