<svg xmlns="http://www.w3.org/2000/svg" viewBox="0 0 800 560" width="800" height="560"><defs><filter id="n"><feTurbulence type="fractalNoise" baseFrequency="0.9" numOctaves="2" stitchTiles="stitch"/><feColorMatrix values="0 0 0 0 0.96 0 0 0 0 0.94 0 0 0 0 0.92 0 0 0 0.05 0"/></filter><radialGradient id="g3" cx="50%" cy="50%" r="60%"><stop offset="0%" stop-color="#FF5C1F" stop-opacity=".18"/><stop offset="55%" stop-color="#C2410C" stop-opacity=".06"/><stop offset="100%" stop-color="#C2410C" stop-opacity="0"/></radialGradient></defs><rect width="800" height="560" fill="#0B0B0C"/><circle cx="666" cy="239" r="300" fill="url(#g3)"/><rect x="90" y="146" width="118" height="267" rx="14" fill="#0B0B0C" stroke="#F4F1EC" stroke-width="1.2" opacity="1"/><circle cx="149" cy="387" r="7" fill="#FF5C1F"/><rect x="108" y="164" width="54" height="6" rx="3" fill="#8B8680"/><rect x="108" y="180" width="44" height="6" rx="3" fill="#141416" stroke="#8B8680" stroke-width=".4"/><rect x="248" y="125" width="118" height="310" rx="14" fill="#0B0B0C" stroke="#F4F1EC" stroke-width="1.2" opacity="1"/><circle cx="307" cy="409" r="7" fill="#FF5C1F"/><rect x="266" y="143" width="57" height="6" rx="3" fill="#8B8680"/><rect x="266" y="159" width="55" height="6" rx="3" fill="#141416" stroke="#8B8680" stroke-width=".4"/><rect x="406" y="199" width="118" height="161" rx="14" fill="#0B0B0C" stroke="#F4F1EC" stroke-width="1.2" opacity="1"/><circle cx="465" cy="334" r="7" fill="#FF5C1F"/><rect x="424" y="217" width="50" height="6" rx="3" fill="#8B8680"/><rect x="424" y="233" width="52" height="6" rx="3" fill="#141416" stroke="#8B8680" stroke-width=".4"/><rect x="564" y="146" width="118" height="268" rx="14" fill="#FF5C1F" stroke="#F4F1EC" stroke-width="1.2" opacity="1"/><rect width="800" height="560" filter="url(#n)" opacity=".6"/><text x="40" y="524" font-family="Courier New,monospace" font-size="13" letter-spacing="3" fill="#8B8680">FEED / SIGNAL</text><text x="760" y="524" text-anchor="end" font-family="Courier New,monospace" font-size="13" letter-spacing="3" fill="#FF5C1F">BW—03</text></svg>