<svg xmlns="http://www.w3.org/2000/svg" viewBox="0 0 800 560" width="800" height="560"><defs><filter id="n"><feTurbulence type="fractalNoise" baseFrequency="0.9" numOctaves="2" stitchTiles="stitch"/><feColorMatrix values="0 0 0 0 0.96 0 0 0 0 0.94 0 0 0 0 0.92 0 0 0 0.05 0"/></filter><radialGradient id="g1" cx="50%" cy="50%" r="60%"><stop offset="0%" stop-color="#FF5C1F" stop-opacity=".18"/><stop offset="55%" stop-color="#C2410C" stop-opacity=".06"/><stop offset="100%" stop-color="#C2410C" stop-opacity="0"/></radialGradient></defs><rect width="800" height="560" fill="#0B0B0C"/><circle cx="663" cy="128" r="300" fill="url(#g1)"/><rect x="90" y="197" width="118" height="166" rx="14" fill="#0B0B0C" stroke="#F4F1EC" stroke-width="1.2" opacity="1"/><circle cx="149" cy="337" r="7" fill="#FF5C1F"/><rect x="108" y="215" width="57" height="6" rx="3" fill="#8B8680"/><rect x="108" y="231" width="37" height="6" rx="3" fill="#141416" stroke="#8B8680" stroke-width=".4"/><rect x="248" y="171" width="118" height="217" rx="14" fill="#FF5C1F" stroke="#F4F1EC" stroke-width="1.2" opacity="1"/><rect x="406" y="182" width="118" height="195" rx="14" fill="#0B0B0C" stroke="#F4F1EC" stroke-width="1.2" opacity="1"/><circle cx="465" cy="351" r="7" fill="#FF5C1F"/><rect x="424" y="200" width="46" height="6" rx="3" fill="#8B8680"/><rect x="424" y="216" width="51" height="6" rx="3" fill="#141416" stroke="#8B8680" stroke-width=".4"/><rect x="564" y="130" width="118" height="299" rx="14" fill="#0B0B0C" stroke="#F4F1EC" stroke-width="1.2" opacity="1"/><circle cx="623" cy="403" r="7" fill="#FF5C1F"/><rect x="582" y="148" width="45" height="6" rx="3" fill="#8B8680"/><rect x="582" y="164" width="48" height="6" rx="3" fill="#141416" stroke="#8B8680" stroke-width=".4"/><rect width="800" height="560" filter="url(#n)" opacity=".6"/><text x="40" y="524" font-family="Courier New,monospace" font-size="13" letter-spacing="3" fill="#8B8680">FEED / SIGNAL</text><text x="760" y="524" text-anchor="end" font-family="Courier New,monospace" font-size="13" letter-spacing="3" fill="#FF5C1F">BW—01</text></svg>